<?xml version="1.0" standalone="no"?>
<!DOCTYPE svg PUBLIC "-//W3C//DTD SVG 20010904//EN"
 "http://www.w3.org/TR/2001/REC-SVG-20010904/DTD/svg10.dtd">
<svg version="1.0" xmlns="http://www.w3.org/2000/svg"
 width="500.000000pt" height="500.000000pt" viewBox="0 0 500.000000 500.000000"
 preserveAspectRatio="xMidYMid meet">

<g transform="translate(0.000000,500.000000) scale(0.100000,-0.100000)"
fill="#000000" stroke="none">
<path d="M3520 4216 c-642 -478 -1031 -761 -1040 -758 -8 3 -468 342 -1022
754 -554 411 -1010 748 -1013 748 -3 0 -5 -1109 -5 -2465 0 -1998 2 -2465 13
-2465 7 0 108 71 224 158 116 86 390 290 608 452 219 162 549 408 734 545 185
138 370 276 411 306 41 31 82 53 90 51 8 -3 468 -342 1022 -754 554 -411 1010
-748 1013 -748 3 0 5 1111 5 2470 0 1359 -3 2470 -7 2469 -5 0 -469 -344
-1033 -763z m648 -2567 l-3 -861 -1202 857 c-662 472 -1203 861 -1203 865 0 4
541 393 1203 865 l1202 857 3 -861 c1 -474 1 -1248 0 -1722z m-2657 2081 c371
-264 675 -484 677 -489 1 -4 -216 -169 -482 -367 -267 -197 -485 -361 -485
-364 0 -3 225 -171 499 -375 275 -203 499 -373 498 -377 -3 -6 -1288 -924
-1361 -972 l-27 -18 0 1721 c0 946 2 1721 4 1721 2 0 307 -216 677 -480z"/>
</g>
</svg>
